/* XPM */
static char *kernel_remover[] = {
/* columns rows colors chars-per-pixel */
"32 32 256 2 ",
"   c #010101",
".  c #0A0A0A",
"X  c #05080D",
"o  c #151206",
"O  c #0B1016",
"+  c #151515",
"@  c #1C1C1C",
"#  c #3F3F00",
"$  c #1D2025",
"%  c gray14",
"&  c #2B2B29",
"*  c #222529",
"=  c #3D372B",
"-  c #26233A",
";  c #313131",
":  c gray23",
">  c #5C5C00",
",  c #5B421C",
"<  c #644416",
"1  c #67481A",
"2  c #6C4B1A",
"3  c #72511E",
"4  c #404039",
"5  c #6C5329",
"6  c #755422",
"7  c #7B5721",
"8  c #7E5B25",
"9  c #7F5E29",
"0  c #755729",
"q  c #615139",
"w  c #7C5E31",
"e  c #755E3B",
"r  c #77623E",
"t  c #243346",
"y  c #2E3D51",
"u  c #3F4852",
"i  c #324357",
"p  c #2D4A6F",
"a  c #3D5674",
"s  c #464747",
"d  c #534E44",
"f  c #595242",
"g  c #48515B",
"h  c #575856",
"j  c #6B5F49",
"k  c #625F51",
"l  c #6F644F",
"z  c #726246",
"x  c #6B675A",
"c  c #696458",
"v  c #58677A",
"b  c #516072",
"n  c #646562",
"m  c gray43",
"M  c #777264",
"N  c #707278",
"B  c #787973",
"V  c #885900",
"C  c #815E29",
"Z  c #85622C",
"A  c #8A672E",
"S  c #886732",
"D  c #8C6A34",
"F  c #806435",
"G  c #92713B",
"H  c #886B47",
"J  c #8C744C",
"K  c #9A7741",
"L  c #9C7C45",
"P  c #95754E",
"I  c #977A4F",
"U  c #9C7B4A",
"Y  c #98754F",
"T  c #867157",
"R  c #8E7150",
"E  c #89755A",
"W  c #9B7C52",
"Q  c #9E7F59",
"!  c #947759",
"~  c #A37E53",
"^  c #7E817C",
"/  c #FFA700",
"(  c #FFAD00",
")  c #FFBA00",
"_  c #F9B209",
"`  c #FEB62D",
"'  c #CCC805",
"]  c #FFC400",
"[  c #FFC800",
"{  c #FDD203",
"}  c #FFE000",
"|  c #FFEB00",
" . c #FFF700",
".. c #F3F30B",
"X. c #E4CA2A",
"o. c #9D805B",
"O. c #A38255",
"+. c #AA8655",
"@. c #AC8A57",
"#. c #A3835C",
"$. c #A9855B",
"%. c #AC8B5D",
"&. c #B28D5C",
"*. c #B6875A",
"=. c #B6925F",
"-. c #BC925D",
";. c #9A8365",
":. c #93836D",
">. c #98846A",
",. c #9C896D",
"<. c #8B8478",
"1. c #9A8672",
"2. c #9F8F7A",
"3. c #938776",
"4. c #A48965",
"5. c #AB8D65",
"6. c #A98B64",
"7. c #B78E60",
"8. c #BE8E60",
"9. c #AC926D",
"0. c #B69162",
"q. c #BC9463",
"w. c #B2936C",
"e. c #BF9F6D",
"r. c #BB9965",
"t. c #AD9572",
"y. c #A99578",
"u. c #B39B73",
"i. c #BA9D75",
"p. c #B99F7A",
"a. c #B39875",
"s. c #B2B266",
"d. c #BDA27B",
"f. c #C0945C",
"g. c #C08D60",
"h. c #C39463",
"j. c #C29A65",
"k. c #C29768",
"l. c #CE9E68",
"z. c #C6A46D",
"x. c #CCA36B",
"c. c #CAA266",
"v. c #D5A96D",
"b. c #C8A670",
"n. c #FFD077",
"m. c #2F5E98",
"M. c #4A6484",
"N. c #536D8F",
"B. c #5B738B",
"V. c #4B6B92",
"C. c #667D9D",
"Z. c #4B76A8",
"A. c #5E7DA3",
"S. c #557AA5",
"D. c #4178BA",
"F. c #5B7CBF",
"G. c #417FCE",
"H. c #487DC4",
"J. c #67829F",
"K. c #6D839B",
"L. c #788497",
"P. c #5D80A5",
"I. c #6A87AA",
"U. c #7088A2",
"Y. c #7789A7",
"T. c #6A8AB3",
"R. c #4080CE",
"E. c #5487C7",
"W. c #4C88D2",
"Q. c #5790D5",
"!. c #5B92D5",
"~. c #728AC4",
"^. c #6E93C2",
"/. c #7D9BC3",
"(. c #7695C9",
"). c #6D9EDC",
"_. c #6498D9",
"`. c #749DDB",
"'. c #75A3E0",
"]. c #878A83",
"[. c #989387",
"{. c #999B95",
"}. c #B09C80",
"|. c #9DA09B",
" X c #B9A483",
".X c #BDAA8C",
"XX c #AFA491",
"oX c #BAAA93",
"OX c #8585A1",
"+X c #918BA4",
"@X c #8A97A3",
"#X c #93A0AE",
"$X c #9BA7B2",
"%X c #A4A4A4",
"&X c #ABADA6",
"*X c #ADADAA",
"=X c #B4AEA7",
"-X c #ADB0A9",
";X c #B3B4AE",
":X c #A5A4B7",
">X c #A8B2BB",
",X c #BABAB7",
"<X c #BDBEBC",
"1X c #B5B7B2",
"2X c #C3A982",
"3X c #C3AD8C",
"4X c #C8AF89",
"5X c #CAB18F",
"6X c #CCB99B",
"7X c #C6B497",
"8X c #D1BC9A",
"9X c #CBBCA2",
"0X c #C4BCAE",
"qX c #CFC1A8",
"wX c #D5C3A8",
"eX c #D6C9B4",
"rX c #DACFB6",
"tX c #899BCD",
"yX c #9FABD6",
"uX c #B5BCC1",
"iX c #A2B2D3",
"pX c #81ADE4",
"aX c #88B2E7",
"sX c #8EB6EA",
"dX c #94BAED",
"fX c #B7C0DF",
"gX c #BDC4D5",
"hX c #9CC0F1",
"jX c #A5C2EF",
"kX c #A4C5F4",
"lX c #C5C6C1",
"zX c #C9CBC5",
"xX c #CDCDCA",
"cX c #C3C7C9",
"vX c #CDD1CA",
"bX c #D2D5CF",
"nX c #D9D6C8",
"mX c #D2D6D4",
"MX c #D6D9D2",
"NX c #D9DCD6",
"BX c #DBDDDA",
"VX c #D3D9DC",
"CX c #DEE1DB",
"ZX c #E1E3DE",
"AX c #CBD1E5",
"SX c #E5E6E2",
"DX c #E7E8E4",
"FX c #E9EAE6",
"GX c #ECEDE9",
"HX c #E5E6E4",
"JX c #EFF0EC",
"KX c #F1F2EE",
"LX c #FFF9EE",
"PX c #FEFEFE",
"IX c #F2F3F0",
"UX c None",
/* pixels */
"6X6XUXUXUXUXUXUXUXUXUXUXUXUXUXUXUXUXUXUXUXUXUXUXUXUXUXUXUXUXUXUX",
"wX XrXUXUXUXUXzXNXbXvXlX<X,X*X&X&X&X*X*XUXUXUXUXUXUXUXUXUXUXUXUX",
"UX3XqXUXUXUXUXNXFXGXFXDXFXFXDXDXDXDXFXFXFXHXDXHXFXCXc UXUXUXUXUX",
"UX8X XUXUXUXUXCXFXFXFXDXDXDXDXDXDXDXFXFXFXGXGXGXGXbXq UXUXUXUXUX",
"UX8X6.qXUXUXUXDXSXZXDXSXDXDXSXSXDXDXDXFXGXGXDXSXCX*X5 UXUXUXUXUX",
"UXUXd.7XUXUXzXHX$XB.A.J.K.U.@X#X>XcXVXZXDXZXZXZXCX{.6 UXUXUXUXUX",
"UXUX4X9.eXUXvXDXL.R.G.S.b g u a Z.Z.S.A.I.C.mXZXNXB 7 UXUXUXUXUX",
"UXUX6X$.9XUXbXZXL.W.N.s : ; % + O m.R.W.Q.H.VXBXMXx 7 UXUXUXUXUX",
"UXUXUXd.oXUXMXZXK.E.s ; % + .     X D.!._.F.CXNXvXj 8 UXUXUXUXUX",
"UXUXUX5X9.eXBXmXK.V.% + .           p _.).~.NXNX,Xe UXUXUXUXUXUX",
"UXUXUX9Xt.9XCXuXT.i %X%X    @ X     t ).).tXMXNX|.w UXUXUXUXUXUX",
"UXUXUXUX2X.XnX$X/.* n <XX h PXHX.   t '.).iXMXMX^ Z UXUXUXUXUXUX",
"UXUXUXUX.X,.XX@X^.& 4 s.# ,X& *X:   y pX'.gXMXbXn A UXUXUXUXUXUX",
"UXUXUXUX2.>.>.<.A.> .. .| X.o *X@   M.aX`.VXmXvXk D UXUXUXUXUXUX",
"UXUXUXUX;.$.a.3.N ' | } { ] _ J     T.sX(.BXMXlXj UXUXUXUXUXUXUX",
"UXUXUXUX1.:.! d.2Xu.{ [ ) ( / V     /.sXtXMXMX-Xr UXUXUXUXUXUXUX",
"UXUXUXUXy.9.$.p.d.3X%._ / ` n.d   . /.dXyXNXCX[.r UXUXUXUXUXUXUX",
"UXUXUXUXy.5.$.p.t.b.9.6XLXPXPXm     Y.dXfXCXCXM 9 , UXUXUXUXUXUX",
"UXUXUXUX}.$.$.w.a.i.i.Q FXPXPX%X    v kXAXZXBXx 8 3 w I UXUXUXUX",
"UXUXUXUXoX$.6.O.w.a.p.:.1.PXPXxX    % kXHXZXMXl 3 < 2 S e.UXUXUX",
"UXUXUXUX0X#.$.~ 4.>.>.9.R =X:X+X-     Y.FXDXzXz 3 1 1 3 Z b.UXUX",
"UXUXUXUXMX>.E T T o.5.i.Q Q MXDXGXgXOXOXFXFX1Xe 8 9 7 7 C Z b.UX",
"UXUXUXUX*X4.R O.P O.Q 6.w.O.w.ZXDXFXFXFXGXGX|.0 UXK A A A G D z.",
"UXUXUXUXUXo.Y 7.~ Y $.I q.I 0.3XFXGXJXJXGXGX].3 UXUX+.L O.O.G D ",
"UXUXUXUXUX%.W q.+.P 0.$.%.7.H j.4XDXGXIXIXFXB 1 UXUXUXr.=.@.L UX",
"UXUXUXUXUX5.+.&.@.q.U 7.%.h.Y O.c.u.nXGXIXBXx , UXUXUXUXUXUXUXUX",
"UXUXUXUXUXO.x.%.&.f.O.q.*.r.k.z c.%.o.2.=X;Xf q UXUXUXUXUXUXUXUX",
"UXUXUXUXUXUXx.v.@.-.&.q.g.8.x.g.U j.J UX& h = UXUXUXUXUXUXUXUXUX",
"UXUXUXUXUXUXr.l.@.f.v.+.8.*.x.q.h.UXUXUXUXUXUXUXUXUXUXUXUXUXUXUX",
"UXUXUXUXUXUXq.g.@.f.v.=.j.O.UXUXUXUXUXUXUXUXUXUXUXUXUXUXUXUXUXUX",
"UXUXUXUXUXUX$.8.+.*.UXUXUXUXUXUXUXUXUXUXUXUXUXUXUXUXUXUXUXUXUXUX",
"UXUXUXUXUXUXUXUXUXUXUXUXUXUXUXUXUXUXUXUXUXUXUXUXUXUXUXUXUXUXUXUX"
};
