/* XPM */
static char *kernel_remover_16[] = {
/* columns rows colors chars-per-pixel */
"16 16 156 2 ",
"   c black",
".  c #010101",
"X  c #020305",
"o  c #040404",
"O  c #101010",
"+  c #151515",
"@  c #181818",
"#  c #2C2D2E",
"$  c #704E1C",
"%  c #70511F",
"&  c #5B5138",
"*  c #6E542B",
"=  c #795925",
"-  c #765A2D",
";  c #6B5A3E",
":  c #78643C",
">  c #2F3945",
",  c #44494F",
"<  c #574F42",
"1  c #4D5D5A",
"2  c #7B6744",
"3  c #7E6D4E",
"4  c #6D6C68",
"5  c #62657E",
"6  c #656878",
"7  c #846433",
"8  c #826535",
"9  c #94723A",
"0  c #98743F",
"q  c #9A7742",
"w  c #97774F",
"e  c #827053",
"r  c #8E7A5F",
"t  c #9F7C52",
"y  c #9A7E55",
"u  c #977B59",
"i  c #A79F2D",
"p  c #C28614",
"a  c #FFBF00",
"s  c #FFDB00",
"d  c #C2C230",
"f  c #9F8156",
"g  c #A3814C",
"h  c #AA8657",
"j  c #A38259",
"k  c #A0825A",
"l  c #AA8359",
"z  c #AE885C",
"x  c #B38F5A",
"c  c #B28D5D",
"v  c #B78F5C",
"b  c #B48E5E",
"n  c #B6915D",
"m  c #BB905C",
"M  c #9B8363",
"N  c #9F8D60",
"B  c #8D8370",
"V  c #8D8776",
"C  c #A98761",
"Z  c #A28969",
"A  c #A58D6E",
"S  c #B48F61",
"D  c #B88F60",
"F  c #AC916B",
"G  c #AE916A",
"H  c #AC926F",
"J  c #B3986F",
"K  c #B99A6B",
"L  c #A78F75",
"P  c #A39175",
"I  c #A89372",
"U  c #A89577",
"Y  c #AD9775",
"T  c #B19874",
"R  c #B89D77",
"E  c #B19879",
"W  c #B99F7A",
"Q  c #C09361",
"!  c #C59B67",
"~  c #C69E65",
"^  c #C69F66",
"/  c #F5CB7B",
"(  c #3A5F8C",
")  c #536B8A",
"_  c #486994",
"`  c #50729D",
"'  c #4879B7",
"]  c #5F81AC",
"[  c #4F80B9",
"{  c #5E85B5",
"}  c #6485AC",
"|  c #7487A4",
" . c #6A8DB4",
".. c #6B91CF",
"X. c #7DA2D0",
"o. c gray52",
"O. c #888985",
"+. c #929085",
"@. c #9F9F98",
"#. c #A19A8A",
"$. c #B7A185",
"%. c #BFA483",
"&. c #B3A48A",
"*. c #B9AD96",
"=. c #91A6BD",
"-. c #A2A2A2",
";. c #AEB0A9",
":. c #A0AEBC",
">. c #A1AEBD",
",. c #B5B7B0",
"<. c #B2B3BC",
"1. c #C7B392",
"2. c #CEC0A6",
"3. c #D9C0A2",
"4. c #D9C4A5",
"5. c #C1C3BE",
"6. c #C2C4BE",
"7. c #DCCEB5",
"8. c #86A3CA",
"9. c #82A0D4",
"0. c #9BB2DA",
"q. c #AEB8C1",
"w. c #B7C7E1",
"e. c #C0C3C5",
"r. c #C6C9C3",
"t. c #CACDC8",
"y. c #D9CFC6",
"u. c #D2D4CD",
"i. c #C9CDD0",
"p. c #D4D5D0",
"a. c #D5D5D5",
"s. c #D6D8D3",
"d. c #D7DAD3",
"f. c #D6DAD5",
"g. c #D9DBD6",
"h. c #DCDFD7",
"j. c #DCE0DD",
"k. c #E0E2DF",
"l. c #CED6E4",
"z. c #DEE3E5",
"x. c #E3E5E0",
"c. c #E3E5E2",
"v. c #E6E7E3",
"b. c #E7E8E4",
"n. c #E7E9E5",
"m. c #E8E9E5",
"M. c #E9EBE5",
"N. c #E9E9E6",
"B. c #E8EAE7",
"V. c #E9EAE7",
"C. c #EAEBE6",
"Z. c #EDECE7",
"A. c #EAEBE8",
"S. c #ECEDE9",
"D. c #EDEEEA",
"F. c None",
/* pixels */
"1.F.F.F.t.5.,.F.F.F.F.F.F.F.F.F.",
"4.7.F.p.A.N.N.v.v.N.B.N.c.& F.F.",
"F.Y F.s.:.=.:.q.i.j.N.v.6.* F.F.",
"F.R F.g. .` , > ( [ { j.@.F.F.F.",
"F.3.2.f.} # O   o ' ..h.V F.F.F.",
"F.F.I e.) -.+ o.o _ 9.s.e F.F.F.",
"F.F.P #.1 d i 4 @ ] 0.u.2 F.F.F.",
"F.F.A L N s a p   X.w.r.: F.F.F.",
"F.F.T F W K / *.  8.l.;.- F.F.F.",
"F.F.E C J H y.a.  | z.+.$ 7 F.F.",
"F.F.&.u M F Z <.6 5 A.B = % 9 F.",
"F.F.U f t j k $.C.D.D.3 F.q 0 g ",
"F.F.F.b h z S w %.Z.Z.; F.F.f : ",
"F.F.F.~ v n D l x r O.< F.F.F.F.",
"F.F.F.! m ~ Q b F.F.F.F.F.F.F.F.",
"F.F.F.F.F.F.F.F.F.F.F.F.F.F.F.F."
};
