/* XPM */
static char *kernel_remover[] = {
/* columns rows colors chars-per-pixel */
"32 32 256 2 ",
"   c #010101",
".  c #090909",
"X  c #070C13",
"o  c #0B1015",
"O  c #141414",
"+  c #191919",
"@  c #221F11",
"#  c #363600",
"$  c #181625",
"%  c #1C2025",
"&  c #242424",
"*  c #2E2E2C",
"=  c #3C372E",
"-  c #252D38",
";  c #313131",
":  c #3E3E3E",
">  c #555500",
",  c #5B431E",
"<  c #634416",
"1  c #6B4B1B",
"2  c #73521E",
"3  c #79561F",
"4  c #484339",
"5  c #6C5329",
"6  c #765523",
"7  c #7D5A23",
"8  c #7B5B2A",
"9  c #614E34",
"0  c #61523A",
"q  c #7C5F32",
"w  c #745E3A",
"e  c #79623F",
"r  c #233042",
"t  c #29415E",
"y  c #34465D",
"u  c #384D67",
"i  c #3E5977",
"p  c #444543",
"a  c #4C4C4C",
"s  c #5B5443",
"d  c #484F57",
"f  c #565655",
"g  c #6C5F46",
"h  c #635F52",
"j  c #6D614A",
"k  c #766546",
"l  c #6B675A",
"z  c #6B6456",
"x  c #404F61",
"c  c #525F72",
"v  c #516174",
"b  c #666765",
"n  c #6C6C6E",
"m  c #787265",
"M  c #747673",
"N  c #7C7D76",
"B  c #835600",
"V  c #815F2B",
"C  c #89652E",
"Z  c #83622D",
"A  c #8C6933",
"S  c #856634",
"D  c #906C35",
"F  c #95733D",
"G  c #856A49",
"H  c #8E6D4B",
"J  c #8C704A",
"K  c #997740",
"L  c #9E7C45",
"P  c #93744D",
"I  c #9A754A",
"U  c #9F7E49",
"Y  c #8A7154",
"T  c #8A7559",
"R  c #9C7D54",
"E  c #9E7F58",
"W  c #947856",
"Q  c #A37D52",
"!  c #A77F58",
"~  c #A87954",
"^  c #847B6A",
"/  c #8D7E6A",
"(  c #907F67",
")  c #7E817C",
"_  c #AAA807",
"`  c #EEA805",
"'  c #FFA701",
"]  c #FFAD00",
"[  c #FFBB00",
"{  c #F5B30D",
"}  c #FBB52F",
"|  c #EDC809",
" . c #FFC500",
".. c #FFC900",
"X. c #FFD300",
"o. c #FFE000",
"O. c #FFEC00",
"+. c #FFF800",
"@. c #F3F30A",
"#. c #E2C929",
"$. c #9A815F",
"%. c #A58255",
"&. c #AC8A55",
"*. c #A4845B",
"=. c #AC855C",
"-. c #AD8A5C",
";. c #A88654",
":. c #B38D5D",
">. c #B38659",
",. c #BC925D",
"<. c #B5955F",
"1. c #9A856D",
"2. c #9C896D",
"3. c #97826A",
"4. c #978773",
"5. c #A58964",
"6. c #AC8B63",
"7. c #A18969",
"8. c #A88F6E",
"9. c #A58764",
"0. c #B38E62",
"q. c #BD8E64",
"w. c #AD926C",
"e. c #A7946C",
"r. c #B49264",
"t. c #BA9563",
"y. c #BE9864",
"u. c #B1946C",
"i. c #BA9A6F",
"p. c #A38F71",
"a. c #AC9679",
"s. c #B59A74",
"d. c #B89D7A",
"f. c #B1B167",
"g. c #BBA179",
"h. c #C19A65",
"j. c #C29C6B",
"k. c #C39762",
"l. c #CCA46B",
"z. c #DAAD6F",
"x. c #D2A46A",
"c. c #C5A676",
"v. c #D3B27A",
"b. c #325682",
"n. c #3364A2",
"m. c #496181",
"M. c #5C7188",
"N. c #4E6F99",
"B. c #58779B",
"V. c #667B99",
"C. c #4C77A9",
"Z. c #557BA5",
"A. c #4679B7",
"S. c #627FA5",
"D. c #3F7FCE",
"F. c #4279C8",
"G. c #5A7EC2",
"H. c #6B839C",
"J. c #7A8C9D",
"K. c #71859A",
"L. c #5F80A5",
"P. c #6C86A3",
"I. c #6989AE",
"U. c #7B84AB",
"Y. c #738EB0",
"T. c #4282CF",
"R. c #4780C5",
"E. c #5488C9",
"W. c #4C88D3",
"Q. c #508BD3",
"!. c #5E93D7",
"~. c #728BC4",
"^. c #7698C3",
"/. c #6C9FDD",
"(. c #789BD1",
"). c #74A3DE",
"_. c #78A2DD",
"`. c #77A5E1",
"'. c #878787",
"]. c #878984",
"[. c #93958E",
"{. c #88849C",
"}. c #889098",
"|. c #9C9C9C",
" X c #9B9893",
".X c #AB9F8C",
"XX c #A29683",
"oX c #9DA09A",
"OX c #BAA583",
"+X c #BBAA8C",
"@X c #A3A399",
"#X c #B9AD98",
"$X c #8889A2",
"%X c #8596A7",
"&X c #9A98AC",
"*X c #93A1AF",
"=X c #9FA9B3",
"-X c #ACAEA9",
";X c #AFB2AC",
":X c #B3B1AA",
">X c #A2ACB7",
",X c #A7B1BB",
"<X c #B4B5B3",
"1X c #BABBB6",
"2X c #BEBEBE",
"3X c #C3A983",
"4X c #C4AD8C",
"5X c #C4A982",
"6X c #C3B193",
"7X c #CAB393",
"8X c #C9B79B",
"9X c #CABBA3",
"0X c #FED381",
"qX c #CEC1A7",
"wX c #D2C2A6",
"eX c #D1C3AD",
"rX c #C8C6BC",
"tX c #D5CAB4",
"yX c #8A9CCD",
"uX c #9FABD6",
"iX c #BABFC2",
"pX c #A2B1D4",
"aX c #B6BFDE",
"sX c #82AEE4",
"dX c #88B2E7",
"fX c #8EB6EA",
"gX c #94BBEE",
"hX c #BEC7DB",
"jX c #9DC1F1",
"kX c #A7C6F3",
"lX c #C6C9C3",
"zX c #C9CCC6",
"xX c #C9CCCB",
"cX c #CED2CA",
"vX c #D2D4CC",
"bX c #D9D7CE",
"nX c #C1C4D3",
"mX c #D5D6D2",
"MX c #D6DAD3",
"NX c #DADCD6",
"BX c #D6DBDD",
"VX c #DCDED8",
"CX c #E1D9CA",
"ZX c #DEE1DB",
"AX c #E1E3DD",
"SX c #CCD2E5",
"DX c #DFE3EA",
"FX c #E5E6E2",
"GX c #E7E8E4",
"HX c #E9EAE6",
"JX c #ECEDEA",
"KX c #EFF1ED",
"LX c #F3F2EE",
"PX c #F3F3F1",
"IX c #FFFFFF",
"UX c None",
/* pixels */
"6X8XUXUXUXUXUXUXUXUXUXUXUXUXUXUXUXUXUXUXUXUXUXUXUXUXUXUXUXUXUXUX",
"wXOXtXUXUXUXUXlXNXmXcXlX2X1X-X-X-X-X-X;XUXUXUXUXUXUXUXUXUXUXUXUX",
"UX4XwXUXUXUXUXNXJXHXJXJXHXHXHXHXGXGXHXHXHXHXHXHXHXAXh UXUXUXUXUX",
"UX7X+XUXUXUXUXAXJXGXGXGXHXGXGXGXGXGXHXHXHXHXJXJXJXMX0 UXUXUXUXUX",
"UX7X8.qXUXUXUXGXGXAXAXGXGXGXFXFXGXGXGXHXHXJXJXGXZX<X5 UXUXUXUXUX",
"UXUXd.6XUXUXzXGX>XM.V.H.K.P.%X*X,XxXNXFXGXFXZXFXZX X6 UXUXUXUXUX",
"UXUX4Xw.eXUXcXFXJ.F.T.A.v d y v C.C.Z.L.I.V.NXVXZXM 6 UXUXUXUXUX",
"UXUX7X*.9XUXvXFXK.W.N.a 4 ; & O X n.D.T.!.F.BXVXNXl 7 UXUXUXUXUX",
"UXUXUXc.+XUXNXFXH.E.p ; & + .     X A.Q.).G.ZXNXvXj V UXUXUXUXUX",
"UXUXUX7X8.tXVXMXP.N.& + .           b.!._.~.ZXNX1Xw UXUXUXUXUXUX",
"UXUXUX9Xw.9XVXiXI.u |.'.    O .     t /.).yXNXMXoXe UXUXUXUXUXUX",
"UXUXUXUX4X+XvX>X^.- n <X  f IX2X    r `./.pXMXMX) Z UXUXUXUXUXUX",
"UXUXUXUX+X1..X}.(.& p f.# <X* <X&   y sX`.hXmXvXb C UXUXUXUXUXUX",
"UXUXUXUX^ 3.2.m I.> @.+.O.#.@ <X    m.dX`.NXmXcXh A UXUXUXUXUXUX",
"UXUXUXUXW 5.OX4.n _ O.o.X. .{ k     P.dX(.NXMXlXg A UXUXUXUXUXUX",
"UXUXUXUX/ 1.E OX4Xe.| ..[ ] ' B     ^.fXyXMXMX;Xe UXUXUXUXUXUXUX",
"UXUXUXUX2.u.6.g.5X4X;.` ' } 0X4   . Y.gXuXBXNX[.e UXUXUXUXUXUXUX",
"UXUXUXUXp.-.=.g.g.5Xd.+XLXIXIXM   . V.jXhXZXZXm Z , UXUXUXUXUXUX",
"UXUXUXUXa.-.-.w.s.d.c.8.bXIXIX|.  . c kXSXZXZXl 7 1 e UXUXUXUXUX",
"UXUXUXUX.X5.6.*.u.s.d.4.4.PXIX9X    $ kXDXFXMXj 2 < 1 C c.UXUXUX",
"UXUXUXUX#X7.6.Q 5.2.2.w.9. X&X{.$     U.JXGXzXk 1 1 1 2 C v.UXUX",
"UXUXUXUXrX3.T Y T *.u.i.R 3.rXAXJXnXJ.{.HXJX<Xe 7 Z 6 3 Z A c.UX",
"UXUXUXUX@X7.P *.I *.*.u.r.P 7.NXGXHXHXJXKXKXoX6 UXL A C A D D UX",
"UXUXUXUXUXW P -.Q R =.-.i.H t.a.AXKXKXKXLXJX].2 UXUX;.%.L %.F D ",
"UXUXUXUXUXE %.-.;.R r.>.t.t.w j.d.AXJXLXPXGXN 1 UXUXUXUX<.&.K UX",
"UXUXUXUXUX! <.h.>.t.%.:.q.j.! R -.5.CXJXKXNXl , UXUXUXUXUXUXUXUX",
"UXUXUXUXUXP l.y.&.k.;.k.=.:.q.I &.9 Y XX:X<Xs 0 UXUXUXUXUXUXUXUX",
"UXUXUXUXUXUXy.z.>.,.:.<.>.>.y.>.J R G UX* f = UXUXUXUXUXUXUXUXUX",
"UXUXUXUXUXUX0.x.,.,.z.;.=.~ <.! I UXUXUXUXUXUXUXUXUXUXUXUXUXUXUX",
"UXUXUXUXUXUXP =.:.,.k.%.%.H UXUXUXUXUXUXUXUXUXUXUXUXUXUXUXUXUXUX",
"UXUXUXUXUXUXG Q J I UXUXUXUXUXUXUXUXUXUXUXUXUXUXUXUXUXUXUXUXUXUX",
"UXUXUXUXUXUXUXUXUXUXUXUXUXUXUXUXUXUXUXUXUXUXUXUXUXUXUXUXUXUXUXUX"
};
